<svg id="Group_3856" data-name="Group 3856" xmlns="http://www.w3.org/2000/svg" width="14.307" height="15.267" viewBox="0 0 14.307 15.267">
  <path id="Path_10763" data-name="Path 10763" d="M278.081,377.493c-.008.127-.019.212-.019.3q0,4.758,0,9.517c0,.389.091.477.473.477l13.367,0c.4,0,.466-.069.467-.508q0-4.726,0-9.452c0-.1-.01-.209-.017-.329Z" transform="translate(-278.062 -372.517)" fill="#6d7888"/>
  <path id="Path_10764" data-name="Path 10764" d="M288.113,371.288c0-.356-.006-.712,0-1.068a.544.544,0,0,1,.527-.58.534.534,0,0,1,.521.581q.013,1.068,0,2.136a.526.526,0,1,1-1.049,0C288.108,372,288.113,371.644,288.113,371.288Z" transform="translate(-286.039 -369.64)" fill="#6d7888"/>
  <path id="Path_10765" data-name="Path 10765" d="M321.414,371.311c0,.378.01.756,0,1.133a.513.513,0,0,1-1.017.055c-.021-.808-.017-1.617,0-2.424a.484.484,0,0,1,.522-.43.525.525,0,0,1,.5.5c.01.388,0,.777,0,1.165Z" transform="translate(-309.191 -369.643)" fill="#6d7888"/>
  <path id="Path_10766" data-name="Path 10766" d="M309.014,391.248c-.291,0-.583,0-.874,0a.283.283,0,0,1-.32-.318c0-.421,0-.842,0-1.263,0-.233.123-.328.345-.327.583,0,1.165,0,1.748,0,.234,0,.361.1.357.351-.006.4,0,.8,0,1.2a.309.309,0,0,1-.351.359Z" transform="translate(-300.257 -383.235)" fill="#6d7888"/>
  <path id="Path_10767" data-name="Path 10767" d="M309.026,401.1c-.281,0-.561,0-.842,0-.253,0-.381-.1-.375-.365.008-.389.007-.778,0-1.166,0-.253.093-.383.359-.38.583.006,1.166,0,1.749,0,.248,0,.348.125.346.362,0,.4-.007.8,0,1.2,0,.25-.128.349-.361.348Z" transform="translate(-300.249 -390.031)" fill="#6d7888"/>
  <path id="Path_10768" data-name="Path 10768" d="M285.761,410.956h-.875c-.222,0-.341-.1-.337-.333.007-.421.009-.843.006-1.264,0-.2.093-.307.289-.308.616,0,1.232,0,1.847,0,.216,0,.307.123.307.331,0,.411,0,.821,0,1.232,0,.251-.135.345-.366.345C286.344,410.955,286.052,410.956,285.761,410.956Z" transform="translate(-283.286 -396.834)" fill="#6d7888"/>
  <path id="Path_10769" data-name="Path 10769" d="M309.059,409.045c.281,0,.562,0,.842,0,.24-.005.364.1.363.343,0,.4,0,.8,0,1.2,0,.241-.1.365-.345.366q-.891,0-1.781,0c-.23,0-.329-.12-.328-.345,0-.41,0-.821,0-1.231,0-.238.12-.33.339-.33Z" transform="translate(-300.252 -396.831)" fill="#6d7888"/>
  <path id="Path_10770" data-name="Path 10770" d="M285.757,401.1h-.874c-.224,0-.336-.1-.333-.335.006-.4.005-.8,0-1.2-.006-.257.1-.379.362-.376.561.005,1.122,0,1.683,0,.276,0,.423.1.412.4-.015.388-.008.777-.005,1.166a.3.3,0,0,1-.335.34C286.361,401.1,286.059,401.1,285.757,401.1Z" transform="translate(-283.284 -390.032)" fill="#6d7888"/>
  <path id="Path_10771" data-name="Path 10771" d="M297.375,409.04c.281,0,.562.009.842,0,.243-.01.373.092.376.333q.008.632,0,1.264a.293.293,0,0,1-.332.314q-.891,0-1.782,0a.3.3,0,0,1-.344-.335q0-.616,0-1.232c0-.24.126-.349.367-.343C296.792,409.046,297.084,409.04,297.375,409.04Z" transform="translate(-291.842 -396.827)" fill="#6d7888"/>
  <path id="Path_10772" data-name="Path 10772" d="M297.335,391.244c-.27,0-.54-.006-.81,0s-.4-.108-.4-.383q.008-.567,0-1.133c0-.268.111-.4.385-.4.561.006,1.123.008,1.684,0,.272,0,.4.113.4.383,0,.389,0,.777,0,1.166,0,.256-.13.369-.385.363C297.918,391.238,297.626,391.244,297.335,391.244Z" transform="translate(-291.839 -383.23)" fill="#6d7888"/>
  <path id="Path_10773" data-name="Path 10773" d="M297.348,401.093h-.874a.3.3,0,0,1-.341-.334c0-.41,0-.82,0-1.23a.307.307,0,0,1,.342-.34c.6-.007,1.209-.017,1.811.011a.427.427,0,0,1,.293.292c.034.429.019.862.012,1.294,0,.211-.134.306-.338.306C297.953,401.094,297.65,401.093,297.348,401.093Z" transform="translate(-291.843 -390.026)" fill="#6d7888"/>
  <path id="Path_10774" data-name="Path 10774" d="M320.6,391.247c-.28,0-.561,0-.841,0-.258,0-.372-.123-.369-.377,0-.388.005-.777,0-1.165a.317.317,0,0,1,.353-.364c.593-.006,1.187,0,1.78,0a.3.3,0,0,1,.332.348c0,.431-.008.862-.015,1.294,0,.218-.155.262-.332.264C321.207,391.248,320.905,391.246,320.6,391.247Z" transform="translate(-308.803 -383.233)" fill="#6d7888"/>
  <path id="Path_10775" data-name="Path 10775" d="M320.6,401.095c-.281,0-.562,0-.842,0a.313.313,0,0,1-.359-.354c0-.4,0-.8,0-1.2a.307.307,0,0,1,.331-.352c.615-.009,1.231-.016,1.845.01a.4.4,0,0,1,.262.279c.035.408.02.819.028,1.229.005.269-.113.4-.39.388S320.887,401.095,320.6,401.095Z" transform="translate(-308.805 -390.027)" fill="#6d7888"/>
  <path id="Path_47065" data-name="Path 47065" d="M278.079,377.494a.211.211,0,0,0-.017.053q0,.851,0,1.7c0,.07.082.085.423.085h11.969c.361,0,.418-.012.418-.091q0-.845,0-1.691a.241.241,0,0,0-.015-.059Z" transform="translate(-277.314 -371.762)" fill="#fff"/>
</svg>
