<svg id="Group_3702" data-name="Group 3702" xmlns="http://www.w3.org/2000/svg" width="16.56" height="16.563" viewBox="0 0 16.56 16.563">
  <path id="Path_15382" data-name="Path 15382" d="M280.065,370.563a11.9,11.9,0,0,1-7.814-3.159,11.712,11.712,0,0,1-3.577-6.237,10.78,10.78,0,0,1-.265-2.776,4.629,4.629,0,0,1,3.533-4.255,6.982,6.982,0,0,1,1.028-.133.487.487,0,0,1,.555.373l1.605,4.016c.139.348.28.695.417,1.043a.5.5,0,0,1-.311.722c-.69.279-1.381.556-2.074.826a.176.176,0,0,0-.132.216,5.242,5.242,0,0,0,4.023,4.606c.242.053.49.078.733.122.1.017.142-.017.177-.107.269-.684.544-1.365.816-2.048.161-.4.382-.5.782-.345q2.517,1,5.033,2.011a.5.5,0,0,1,.364.551,4.637,4.637,0,0,1-4.169,4.539C280.527,370.554,280.26,370.554,280.065,370.563Zm-5.576-11.154c-.022-.059-.04-.107-.058-.153l-.626-1.565c-.344-.86-.69-1.72-1.031-2.582-.037-.094-.08-.135-.184-.111-.191.044-.388.066-.576.12a3.657,3.657,0,0,0-2.638,3.52,10.655,10.655,0,0,0,.713,3.9,10.885,10.885,0,0,0,4.455,5.4,10.56,10.56,0,0,0,4.468,1.568,7.016,7.016,0,0,0,1.988.016,3.688,3.688,0,0,0,2.963-3.162.14.14,0,0,0-.108-.173q-2.074-.825-4.147-1.657c-.05-.02-.1-.037-.156-.057-.025.06-.044.1-.061.145l-.777,1.943a.5.5,0,0,1-.514.356,5.666,5.666,0,0,1-2.389-.5,6.118,6.118,0,0,1-3.768-5.653.483.483,0,0,1,.338-.511c.36-.145.721-.288,1.082-.432Z" transform="translate(-268.401 -354)" fill="#b7a886"/>
</svg>
