<svg xmlns="http://www.w3.org/2000/svg" width="20.558" height="13.779" viewBox="0 0 20.558 13.779">
  <g id="Group_3703" data-name="Group 3703" transform="translate(0.1 0.1)">
    <path id="Path_15383" data-name="Path 15383" d="M184.674,198.3h-9.038a1.057,1.057,0,0,1-1.114-.837,1.367,1.367,0,0,1-.022-.292q0-5.659,0-11.319a1.052,1.052,0,0,1,1.137-1.128h7.552q5.253,0,10.507,0a1.129,1.129,0,0,1,.852.308,1.024,1.024,0,0,1,.311.745q0,5.737,0,11.475a1.04,1.04,0,0,1-1.006,1.048c-.075,0-.15,0-.225,0Zm9.386-12.286c-.2.151-.382.283-.56.416q-3.822,2.866-7.644,5.732a1.854,1.854,0,0,1-2.346,0l-7.975-5.981c-.071-.054-.146-.1-.236-.166v10.9c.058-.066.1-.106.131-.148l2.99-3.693c.409-.506.817-1.013,1.229-1.517a.394.394,0,1,1,.607.5c-.024.032-.051.062-.077.094l-4.228,5.224c-.03.037-.055.078-.086.125H193.5c-.041-.055-.067-.093-.1-.128l-3.446-4.257c-.29-.358-.582-.715-.869-1.075a.383.383,0,0,1-.037-.48.339.339,0,0,1,.4-.159.747.747,0,0,1,.307.231q2.044,2.513,4.079,5.034c.063.078.128.155.219.265Zm-18.1-.5c.05.042.066.058.085.072q3.992,3,7.985,5.991a1.07,1.07,0,0,0,1.3-.007l7.945-5.958a.871.871,0,0,1,.112-.061l-.038-.038Z" transform="translate(-174.5 -184.72)" fill="#b7a886" stroke="#b7a886" stroke-width="0.2"/>
  </g>
</svg>
