<svg id="Group_3718" data-name="Group 3718" xmlns="http://www.w3.org/2000/svg" width="26.372" height="18.394" viewBox="0 0 26.372 18.394">
  <path id="Path_47064" data-name="Path 47064" d="M321.922,375.1a1.692,1.692,0,0,1,1.849-1.2c10.167.016,8.736.01,18.9.01h.529c-.148-.154-.242-.256-.341-.354q-2.4-2.393-4.807-4.785a1.451,1.451,0,0,1-.406-1.527,1.4,1.4,0,0,1,1.087-1.006,1.478,1.478,0,0,1,1.444.465q2.691,2.681,5.387,5.357c.666.662,1.347,1.31,1.988,1.995a8.936,8.936,0,0,1,.737,1.042v.593a7.427,7.427,0,0,1-.737,1.042q-3.659,3.678-7.351,7.325a1.484,1.484,0,1,1-2.148-2.038q2.4-2.4,4.806-4.785a2.706,2.706,0,0,1,.325-.241l-.057-.115h-.421c-10.179,0-8.76-.006-18.94.01a1.694,1.694,0,0,1-1.85-1.2Z" transform="translate(-321.922 -366.203)" fill="#b7a886"/>
</svg>
