<svg xmlns="http://www.w3.org/2000/svg" width="18.951" height="18.607" viewBox="0 0 18.951 18.607">
  <g id="Group_152" data-name="Group 152" transform="translate(0.5 0.5)">
    <path id="Path_298" data-name="Path 298" d="M284.971,393.28c-1.034-.152-2.407-2.158-2.162-2.4.566-.555,1.126-1.117,1.7-1.667a.652.652,0,0,1,1.016,0c.384.364.753.743,1.134,1.11a.674.674,0,0,0,.964.127,17.779,17.779,0,0,0,6.183-6.08.661.661,0,0,0-.114-.919c-.39-.376-.779-.754-1.158-1.14a.615.615,0,0,1-.018-.969q.859-.878,1.743-1.733a.639.639,0,0,1,.96-.014c.239.209.461.436.692.653a2.525,2.525,0,0,1,.842,2.237,7.908,7.908,0,0,1-.48,2.056,15.357,15.357,0,0,1-8.037,8.147A12.166,12.166,0,0,1,284.971,393.28Z" transform="translate(-278.822 -375.72)" fill="#a08e64" stroke="#a08e64" stroke-width="1"/>
    <path id="Path_299" data-name="Path 299" d="M304.2,381.189c0,.052-.007.184,0,.314a.64.64,0,0,0,.637.627.658.658,0,0,0,.64-.629,15.713,15.713,0,0,1,.294-2.172,8.241,8.241,0,0,1,7.87-6.074c.456-.012.718-.186.78-.52A.641.641,0,0,0,313.7,372a9.546,9.546,0,0,0-9.507,9.189Z" transform="translate(-304.194 -372)" fill="#a08e64" stroke="#a08e64" stroke-width="1"/>
    <path id="Path_300" data-name="Path 300" d="M305.314,387.044a2.667,2.667,0,0,0,0,.27.633.633,0,0,0,1.261.03c.042-.3.041-.6.106-.895a3.829,3.829,0,0,1,3.52-2.982,2.2,2.2,0,0,0,.356-.038.579.579,0,0,0,.494-.623.553.553,0,0,0-.571-.589,5.7,5.7,0,0,0-1.265.127A5.034,5.034,0,0,0,305.314,387.044Z" transform="translate(-301.261 -378.225)" fill="#a08e64" stroke="#a08e64" stroke-width="1"/>
  </g>
</svg>
