<svg xmlns="http://www.w3.org/2000/svg" width="17.634" height="17.599" viewBox="0 0 17.634 17.599">
  <path id="Path_10248" data-name="Path 10248" d="M164.714,709.271a8.817,8.817,0,1,1-8.805-8.8A8.82,8.82,0,0,1,164.714,709.271Zm-5.514-.506-.328-2.866a45.573,45.573,0,0,1-5.91,0,15.5,15.5,0,0,0-.318,2.861Zm-6.279,3.872a45.915,45.915,0,0,1,5.911,0,15.413,15.413,0,0,0,.32-2.852h-6.556Zm.321.972c-.009.03-.017.043-.015.054.007.038.016.075.026.112a7.728,7.728,0,0,0,1.128,2.351,2.214,2.214,0,0,0,.859.759,1.843,1.843,0,0,0,.716.177,1.539,1.539,0,0,0,1.123-.565,6.417,6.417,0,0,0,1.453-2.707c.016-.053.026-.107.043-.177A41.451,41.451,0,0,0,153.242,713.609Zm5.321-8.682a.4.4,0,0,0,0-.091,7.5,7.5,0,0,0-1.233-2.532,2.132,2.132,0,0,0-1.036-.777,1.478,1.478,0,0,0-1.565.5,5.332,5.332,0,0,0-1.2,1.958c-.114.3-.216.611-.331.939A41.493,41.493,0,0,0,158.563,704.928Zm-6.64.9c-.025,0-.062-.014-.1-.018-.881-.108-1.762-.212-2.643-.324-.12-.015-.157.047-.2.13a7.286,7.286,0,0,0-.7,1.889c-.086.41-.14.827-.21,1.249H151.6Zm11.777,2.93a7.763,7.763,0,0,0-.9-3.167c-.06-.114-.131-.113-.234-.1q-.871.117-1.743.227c-.324.04-.65.072-.955.1l.321,2.934Zm-3.511,1.016-.318,2.925a.053.053,0,0,0,.022.01c.914.112,1.828.226,2.743.332a.2.2,0,0,0,.155-.1c.141-.282.283-.564.4-.856a7.413,7.413,0,0,0,.511-2.313Zm-8.587,0H148.11a.178.178,0,0,0-.013.046,7.724,7.724,0,0,0,.9,3.126c.063.117.139.1.238.091.568-.076,1.136-.152,1.7-.222.336-.042.674-.075.987-.109Zm6.606,6.942a7.628,7.628,0,0,0,3.9-2.732.325.325,0,0,0-.069-.026c-.78-.089-1.56-.179-2.341-.26-.041,0-.115.061-.132.109-.09.254-.159.515-.248.769A9.016,9.016,0,0,1,158.208,716.72Zm-4.625-14.9c-1.351.326-3.527,1.868-3.9,2.762.813.087,1.619.174,2.424.254.035,0,.1-.064.114-.11.087-.255.156-.516.247-.769A8.984,8.984,0,0,1,153.583,701.823Zm4.65.01a9.122,9.122,0,0,1,1.327,2.895c.032.108.079.124.178.113.454-.05.91-.088,1.365-.139.337-.038.671-.089,1.038-.138A7.745,7.745,0,0,0,158.233,701.833Zm-4.65,14.9a9.162,9.162,0,0,1-1.346-2.907c-.034-.108-.075-.139-.188-.126-.563.064-1.127.117-1.69.179-.226.025-.45.064-.7.1A7.9,7.9,0,0,0,153.583,716.73Z" transform="translate(-147.08 -700.47)" fill="#c3af83"/>
</svg>
